C:\Users\israe\Dropbox\PhDWork\ExperimentalData\subject1\055\P1S055W01_filtered35.mot
nRows=8
nColumns=28

name C:\Users\israe\Dropbox\PhDWork\ExperimentalData\subject1\055\P1S055W01_filtered35.mot
datacolumns 28
datarows 8
range 1.9000000000 1.9070000000
endheader
time	ground_force_1_vx	ground_force_1_vy	ground_force_1_vz	ground_force_1_px	ground_force_1_py	ground_force_1_pz	ground_moment_1_mx	ground_moment_1_my	ground_moment_1_mz	ground_force_2_vx	ground_force_2_vy	ground_force_2_vz	ground_force_2_px	ground_force_2_py	ground_force_2_pz	ground_moment_2_mx	ground_moment_2_my	ground_moment_2_mz	ground_force_3_vx	ground_force_3_vy	ground_force_3_vz	ground_force_3_px	ground_force_3_py	ground_force_3_pz	ground_moment_3_mx	ground_moment_3_my	ground_moment_3_mz
        1.9000000000	       -0.0000000000	        0.0000000000	        0.0000000000	        0.2000000000	        0.0000000000	       -0.9030000000	        0.0000000000	       -0.0000000000	       -0.0000000000	        1.4126599864	      387.1088528864	       84.6031489700	        0.2000000000	        0.0000000000	       -0.3000000000	       -3.9638165560	       12.4657807700	      -51.2278025072	      -15.6819357389	      442.3458971034	      -68.6614352151	        0.2000000000	       -0.0000000000	        0.3030000000	       72.3932144966	       -0.7764252286	      -18.2739050706	
        1.9010000000	       -0.0000000000	        0.0000000000	        0.0000000000	        0.2000000000	        0.0000000000	       -0.9030000000	        0.0000000000	       -0.0000000000	       -0.0000000000	        1.0943800205	      382.0489589070	       83.9748641312	        0.2000000000	        0.0000000000	       -0.3000000000	       -4.0027061517	       12.3613090569	      -50.5475483657	      -16.1512936960	      445.5553047382	      -69.1432148664	        0.2000000000	       -0.0000000000	        0.3030000000	       72.6988087204	       -0.6962800048	      -18.3311118586	
        1.9020000000	       -0.0000000000	        0.0000000000	        0.0000000000	        0.2000000000	        0.0000000000	       -0.9030000000	        0.0000000000	       -0.0000000000	       -0.0000000000	        0.7774493002	      376.9596391394	       83.3256092726	        0.2000000000	        0.0000000000	       -0.3000000000	       -4.0403058257	       12.2537102039	      -49.8623774788	      -16.6014393554	      448.7609447354	      -69.6195127330	        0.2000000000	       -0.0000000000	        0.3030000000	       73.0033819276	       -0.6184402928	      -18.3913421269	
        1.9030000000	        0.0000000000	        0.0000000000	        0.0000000000	        0.2000000000	        0.0000000000	       -0.9030000000	        0.0000000000	       -0.0000000000	       -0.0000000000	        0.4613316198	      371.8431130044	       82.6534050331	        0.2000000000	        0.0000000000	       -0.3000000000	       -4.0768510527	       12.1430685187	      -49.1723695754	      -17.0336953689	      451.9570322836	      -70.0932159036	        0.2000000000	       -0.0000000000	        0.3030000000	       73.3056100080	       -0.5431153527	      -18.4547900585	
        1.9040000000	        0.0000000000	        0.0000000000	        0.0000000000	        0.2000000000	        0.0000000000	       -0.9030000000	       -0.0000000000	       -0.0000000000	        0.0000000000	        0.1463176642	      366.7012559594	       81.9564031948	        0.2000000000	        0.0000000000	       -0.3000000000	       -4.1123549484	       12.0295919052	      -48.4779563538	      -17.4484032938	      455.1376146532	      -70.5666629384	        0.2000000000	       -0.0000000000	        0.3030000000	       73.6038320850	       -0.4703001419	      -18.5210756436	
        1.9050000000	        0.0000000000	        0.0000000000	       -0.0000000000	        0.2000000000	        0.0000000000	       -0.9030000000	       -0.0000000000	       -0.0000000000	        0.0000000000	       -0.1665183552	      361.5351303747	       81.2332838736	        0.2000000000	        0.0000000000	       -0.3000000000	       -4.1468956420	       11.9135282048	      -47.7795857673	      -17.8453671445	      458.2985917253	      -71.0411051239	        0.2000000000	       -0.0000000000	        0.3030000000	       73.8965263117	       -0.3998495887	      -18.5893400643	
        1.9060000000	        0.0000000000	        0.0000000000	       -0.0000000000	        0.2000000000	        0.0000000000	       -0.9030000000	       -0.0000000000	       -0.0000000000	        0.0000000000	       -0.4759538786	      356.3433148778	       80.4835184726	        0.2000000000	        0.0000000000	       -0.3000000000	       -4.1806101250	       11.7951040704	      -47.0773992779	      -18.2246763040	      461.4398209148	      -71.5166941292	        0.2000000000	       -0.0000000000	        0.3030000000	       74.1826837057	       -0.3315761641	      -18.6586628156	
        1.9070000000	        0.0000000000	        0.0000000000	       -0.0000000000	        0.2000000000	        0.0000000000	       -0.9030000000	       -0.0000000000	       -0.0000000000	        0.0000000000	       -0.7813582895	      351.1224684519	       79.7075052816	        0.2000000000	        0.0000000000	       -0.3000000000	       -4.2133941431	       11.6745038196	      -46.3713694844	      -18.5876917005	      464.5651142789	      -71.9929888533	        0.2000000000	       -0.0000000000	        0.3030000000	       74.4619754537	       -0.2653151795	      -18.7282804409	
